<svg width="100" height="60" viewBox="0 0 100 60" fill="none" xmlns="http://www.w3.org/2000/svg">
<path d="M84.3031 60C79.456 60 75.7163 57.384 73.0841 52.1519C70.4519 46.8636 69.1358 39.6624 69.1358 30.5485C69.1358 21.3783 70.5322 14.0084 73.3249 8.43882C76.1176 2.81294 79.9375 0 84.7846 0C89.6638 0 93.4195 2.5879 96.0517 7.76371C98.6839 12.8833 100 20.0281 100 29.1983C100 38.3122 98.6037 45.7384 95.811 51.4768C93.0183 57.1589 89.1823 60 84.3031 60ZM84.9772 55.5274C86.7106 55.5274 88.2193 54.8242 89.5033 53.4177C90.8194 52.0112 91.8466 50.0703 92.5849 47.5949C93.9652 42.8129 94.6554 36.7932 94.6554 29.5359C94.6554 22.2785 93.7405 16.2869 91.9108 11.5612C90.1132 6.83544 87.5292 4.47257 84.1587 4.47257C82.4252 4.47257 80.9005 5.17581 79.5844 6.58228C78.3004 7.93249 77.3053 9.81716 76.5991 12.2363C75.1867 16.9058 74.4805 22.8692 74.4805 30.1266C74.4805 37.3277 75.3793 43.3755 77.1769 48.27C78.9745 53.1083 81.5746 55.5274 84.9772 55.5274Z" fill="white"/>
<path d="M34.86 58.9474L34.5679 55.6892C36.288 55.188 37.3265 54.631 37.6835 54.0184C38.073 53.4057 38.2677 52.2361 38.2677 50.5096V9.49039C38.2677 7.76385 38.073 6.59426 37.6835 5.98162C37.3265 5.36898 36.288 4.81203 34.5679 4.31078L34.86 1.05263H50.0974C52.8884 1.05263 55.3063 1.83236 57.3509 3.39181C59.3956 4.89557 60.9858 6.98413 62.1217 9.65748C64.3286 14.7814 65.4321 20.9635 65.4321 28.2038C65.4321 36.1682 64.1988 43.1022 61.7323 49.0059C60.499 52.0134 58.7789 54.4361 56.572 56.274C54.3976 58.0563 51.8824 58.9474 49.0264 58.9474H34.86ZM42.9898 51.1779C42.9898 52.4032 43.3306 53.1273 44.0122 53.35C46.284 54.1298 48.0041 54.5196 49.1724 54.5196C52.7749 54.5196 55.4848 52.3197 57.3023 47.9198C59.1197 43.5199 60.0284 37.6441 60.0284 30.2924C60.0284 25.6697 59.6714 21.6597 58.9574 18.2623C58.2759 14.8649 57.3509 12.2751 56.1826 10.4929C53.9757 7.15121 51.574 5.48036 48.9777 5.48036H42.9898V51.1779Z" fill="white"/>
<path d="M14.2771 60L3.29849 8.02219C3.03593 6.8466 2.72413 6.09087 2.3631 5.75498C2.00207 5.36312 1.21437 4.91528 0 4.41145L0.344619 1.05263H12.0617L12.2586 4.49543L8.76316 6.09087C8.53341 6.14685 8.41854 6.31479 8.41854 6.59469C8.41854 6.81861 8.48418 7.26646 8.61547 7.93822L16.1971 45.9769C16.4925 47.3764 16.6402 48.3281 16.6402 48.8319H17.1325L24.8125 11.465C25.272 9.28175 25.5018 7.85425 25.5018 7.18249C25.5018 6.11886 24.3038 5.19518 21.9079 4.41145L22.2033 1.05263H31.9018L32.0988 4.5794C30.7531 5.02724 29.8998 5.53107 29.5387 6.09087C29.1777 6.65067 28.8331 7.7143 28.5049 9.28175L17.674 60H14.2771Z" fill="white"/>
</svg>
